<svg xmlns="http://www.w3.org/2000/svg" viewBox="0 0 340 340" width="48" height="48" fill="none">
  <g clip-path="url(#clip0)">
    <g clip-path="url(#clip1)">
      <path d="M139.902 221.798c46.136 26.636 87.59 16.36 111.032-24.242C274.376 156.953 265.562 101.588 222.968 66.9854 176.2 28.9924 103.076 28.8221 49.1514 77.2954 0.712304 120.838-14.4417 197.556 14.0315 264.036l0.0148 10e-4c4.5567 10.401 12.353 19.494 22.9416 25.607 26.386 15.234 60.1228 6.203 75.3701-20.17h0.018z" fill="#096738"/>
      <path d="M325.662 76.3028l0.013 8e-4C353.964 142.71 338.781 219.252 290.419 262.725 236.494 311.198 163.371 311.028 116.603 273.035 74.0085 238.432 65.195 183.067 88.6369 142.465 112.079 101.862 153.532 91.5865 199.668 118.223l27.514-47.6556 0.015 8e-4c15.241-26.3915 48.99-35.433 75.384-20.1945 10.697 6.1763 18.545 15.3934 23.081 25.9291z" fill="#4ED062"/>
      <path d="M199.669 118.226c-46.136-26.6369-87.59-16.361-111.0318 24.241-22.648 39.228-15.1884 92.235 23.7548 126.985l27.512-47.653c46.136 26.637 87.59 16.361 111.031-24.241 22.648-39.228 15.189-92.235-23.754-126.985z" fill="#088142"/>
      <path d="M221.587 199.911c-16.512 28.599-53.082 38.398-81.681 21.886-28.6-16.512-38.399-53.082-21.887-81.682 16.512-28.599 53.082-38.398 81.682-21.886 28.599 16.512 38.398 53.082 21.886 81.682z" fill="#66EB6E"/>
    </g>
  </g>
  <defs>
    <clipPath id="clip0">
      <rect width="340" height="340" fill="white"/>
    </clipPath>
    <clipPath id="clip1">
      <rect width="340" height="340" fill="white"/>
    </clipPath>
  </defs>
</svg>
